<?xml version="1.0" standalone="no"?>
<!DOCTYPE svg PUBLIC "-//W3C//DTD SVG 20010904//EN"
 "http://www.w3.org/TR/2001/REC-SVG-20010904/DTD/svg10.dtd">
<svg version="1.0" xmlns="http://www.w3.org/2000/svg"
 width="300.000000pt" height="300.000000pt" viewBox="0 0 300.000000 300.000000"
 preserveAspectRatio="xMidYMid meet">
<metadata>
Created by potrace 1.14, written by Peter Selinger 2001-2017
</metadata>
<g transform="translate(0.000000,300.000000) scale(0.100000,-0.100000)"
fill="#000000" stroke="none">
<path d="M366 2988 c3 -4 9 -8 15 -8 5 0 9 4 9 8 0 5 -7 9 -15 9 -8 0 -12 -4
-9 -9z"/>
<path d="M715 2991 c-3 -5 -1 -12 5 -16 5 -3 10 1 10 9 0 18 -6 21 -15 7z"/>
<path d="M895 2990 c3 -5 12 -7 20 -3 8 3 15 0 15 -6 0 -6 5 -11 11 -11 8 0 8
5 -1 15 -13 16 -55 21 -45 5z"/>
<path d="M2481 2993 c4 -22 -3 -33 -20 -33 -18 0 -31 -18 -31 -43 0 -6 7 -2
16 9 8 10 12 13 8 5 -5 -11 -3 -13 9 -8 10 4 17 1 17 -6 0 -8 4 -6 10 3 8 13
10 13 10 -2 0 -10 11 -25 25 -34 22 -14 24 -19 12 -33 -14 -17 -12 -51 4 -51
9 0 18 28 23 73 4 39 19 52 44 38 18 -9 19 -16 11 -43 -5 -18 -9 -35 -9 -38 0
-3 -5 2 -10 10 -8 12 -10 11 -10 -7 0 -13 -4 -23 -9 -23 -12 0 -81 -67 -80
-77 4 -27 -1 -35 -16 -23 -10 8 -15 9 -15 2 0 -6 -7 -9 -15 -6 -9 4 -15 0 -15
-10 0 -9 8 -16 18 -16 30 -1 57 -24 57 -50 0 -15 6 -26 15 -26 8 -1 22 -2 30
-3 10 -1 15 -12 15 -33 0 -21 5 -32 12 -31 7 2 10 -4 7 -12 -4 -8 -1 -15 5
-15 6 0 11 -5 11 -11 0 -7 9 -20 21 -30 17 -14 19 -25 15 -65 -3 -26 -10 -52
-16 -59 -5 -6 -6 -15 -2 -19 10 -11 -27 -36 -44 -29 -10 4 -12 0 -8 -11 4 -10
12 -15 19 -13 6 3 16 -3 23 -13 6 -10 26 -19 46 -22 19 -2 33 -1 30 3 -2 4 6
9 18 12 l23 4 -25 11 -25 12 29 -5 c25 -5 28 -4 23 14 -3 12 -1 24 4 27 5 3 9
2 8 -3 -5 -28 3 -40 26 -40 14 0 25 5 26 11 0 6 5 -3 10 -20 9 -31 10 -32 47
-23 20 4 45 6 55 3 14 -4 18 -1 17 13 -4 34 0 41 20 36 49 -13 50 -5 50 364
l0 344 -135 -2 c-125 -1 -133 -2 -118 -17 9 -10 19 -17 22 -18 21 -3 63 -26
57 -31 -3 -3 -2 -11 4 -18 11 -13 20 -85 11 -85 -3 0 -17 12 -30 25 -12 14
-28 22 -34 18 -5 -3 -7 -1 -3 5 3 6 -3 17 -15 25 -14 11 -19 21 -15 35 6 18 3
20 -31 15 -21 -3 -49 -5 -63 -5 -27 1 -101 19 -85 21 10 2 -63 31 -77 31 -5 0
-7 -3 -7 -7z m59 -48 c0 -8 -4 -15 -10 -15 -5 0 -7 7 -4 15 4 8 8 15 10 15 2
0 4 -7 4 -15z m79 -316 c19 -21 21 -21 45 -5 14 9 34 16 45 16 24 0 37 -35 21
-55 -16 -19 -4 -35 24 -35 13 0 37 -7 55 -16 31 -16 44 -15 86 2 18 7 18 6 6
-9 -12 -15 -11 -17 5 -18 11 -1 22 -1 27 0 4 0 7 -3 7 -8 0 -5 -10 -11 -22
-13 -19 -2 -22 -8 -20 -33 3 -26 0 -30 -23 -30 -14 0 -25 6 -25 12 0 7 -3 12
-7 12 -21 -3 -33 2 -33 15 0 8 -5 18 -12 22 -7 5 -9 1 -6 -12 5 -21 -19 -51
-30 -39 -4 4 -1 10 6 12 6 3 12 9 12 14 0 6 -4 7 -10 4 -5 -3 -10 -2 -10 4 0
7 -8 7 -26 1 -35 -14 -47 -12 -41 3 3 7 -3 18 -13 24 -9 6 -20 30 -24 52 -5
33 -10 41 -27 41 -12 0 -23 8 -26 20 -3 11 -9 20 -14 20 -5 0 -9 5 -9 10 0 17
18 11 39 -11z m334 -13 c3 -8 0 -17 -7 -19 -10 -4 -12 1 -9 14 6 23 9 24 16 5z
m-156 -18 c-3 -8 -6 -5 -6 6 -1 11 2 17 5 13 3 -3 4 -12 1 -19z m-17 -2 c0 -3
-4 -8 -10 -11 -5 -3 -10 -1 -10 4 0 6 5 11 10 11 6 0 10 -2 10 -4z"/>
<path d="M1205 2970 c3 -5 8 -10 11 -10 2 0 4 5 4 10 0 6 -5 10 -11 10 -5 0
-7 -4 -4 -10z"/>
<path d="M255 2950 c3 -5 8 -10 11 -10 2 0 4 5 4 10 0 6 -5 10 -11 10 -5 0 -7
-4 -4 -10z"/>
<path d="M307 2939 c4 -12 1 -19 -7 -17 -6 2 -17 -6 -23 -17 -7 -11 -20 -26
-29 -33 -10 -7 -18 -19 -18 -27 0 -7 -7 -21 -16 -29 -8 -9 -12 -21 -8 -27 5
-9 -2 -10 -24 -6 -22 4 -34 1 -44 -10 -11 -14 -11 -16 2 -8 12 6 13 5 3 -6 -7
-7 -13 -23 -13 -36 0 -19 -3 -21 -22 -14 -12 4 -24 14 -26 22 -3 11 -1 11 7
-1 8 -11 11 -12 11 -2 0 7 5 10 10 7 6 -4 8 3 6 17 -2 13 -9 22 -15 21 -6 -2
-11 3 -11 11 0 7 -15 16 -32 20 -24 5 -29 9 -19 15 7 5 10 14 6 20 -5 8 -11 9
-19 2 -7 -6 -16 -8 -19 -4 -9 8 -9 -349 -1 -371 7 -18 33 -10 52 16 7 10 18
16 23 13 5 -4 9 -2 9 4 0 5 -6 12 -13 15 -8 3 -7 9 7 20 10 8 15 19 11 25 -3
6 1 11 9 11 9 0 16 8 16 19 0 11 8 26 18 33 10 7 28 34 40 59 12 25 36 59 52
75 35 33 65 89 56 103 -4 5 -1 13 5 17 8 4 9 3 5 -4 -4 -7 -2 -12 5 -12 7 0 9
10 7 24 -4 19 -1 24 12 21 9 -2 17 2 17 8 0 7 2 18 4 26 2 7 -5 15 -18 17 -17
3 -20 0 -16 -17z m-167 -279 c0 -5 -4 -10 -10 -10 -5 0 -10 5 -10 10 0 6 5 10
10 10 6 0 10 -4 10 -10z"/>
<path d="M663 2940 c-1 -11 4 -20 13 -20 8 0 14 9 14 20 0 11 -6 20 -13 20 -7
0 -13 -9 -14 -20z"/>
<path d="M220 2930 c0 -5 5 -10 10 -10 6 0 10 5 10 10 0 6 -4 10 -10 10 -5 0
-10 -4 -10 -10z"/>
<path d="M380 2901 c0 -5 5 -13 10 -16 6 -3 10 -2 10 4 0 5 -4 13 -10 16 -5 3
-10 2 -10 -4z"/>
<path d="M702 2891 c-19 -12 -11 -55 11 -59 14 -3 17 4 17 32 0 37 -5 42 -28
27z"/>
<path d="M1150 2871 c0 -25 6 -27 13 -6 4 8 2 17 -3 20 -6 4 -10 -3 -10 -14z"/>
<path d="M1395 2880 c-3 -5 -1 -10 4 -10 6 0 11 5 11 10 0 6 -2 10 -4 10 -3 0
-8 -4 -11 -10z"/>
<path d="M2390 2880 c-8 -5 -11 -12 -7 -16 4 -4 13 -2 19 4 15 15 7 24 -12 12z"/>
<path d="M70 2866 c0 -9 5 -16 10 -16 6 0 10 4 10 9 0 6 -4 13 -10 16 -5 3
-10 -1 -10 -9z"/>
<path d="M1330 2850 c0 -5 5 -10 11 -10 5 0 8 -4 5 -9 -4 -5 -3 -16 0 -25 8
-21 54 -21 54 -1 0 8 -6 15 -14 15 -8 0 -18 9 -21 20 -6 20 -35 28 -35 10z"/>
<path d="M190 2830 c0 -5 5 -10 10 -10 6 0 10 5 10 10 0 6 -4 10 -10 10 -5 0
-10 -4 -10 -10z"/>
<path d="M772 2798 c5 -15 37 -18 41 -3 1 6 -9 12 -22 13 -16 3 -22 -1 -19
-10z"/>
<path d="M1025 2660 c16 -17 16 -20 3 -15 -13 5 -15 2 -11 -17 4 -18 2 -20 -6
-8 -5 8 -13 11 -18 7 -7 -7 13 -26 28 -27 3 0 18 14 35 31 16 18 22 30 14 27
-8 -3 -21 1 -28 9 -22 21 -37 15 -17 -7z"/>
<path d="M755 2660 c3 -5 8 -10 11 -10 2 0 4 5 4 10 0 6 -5 10 -11 10 -5 0 -7
-4 -4 -10z"/>
<path d="M990 2551 c-58 -60 -112 -122 -120 -137 -8 -16 -25 -45 -39 -64 -14
-19 -41 -57 -60 -85 -18 -27 -56 -74 -84 -102 -29 -30 -45 -53 -37 -53 8 0 59
16 113 35 54 19 102 35 107 35 17 0 11 -39 -11 -82 l-21 -42 63 -58 c35 -31
68 -57 73 -58 4 0 47 25 95 55 48 30 91 55 96 55 13 0 100 -441 92 -464 -4 -9
-11 -14 -17 -11 -6 3 -22 -3 -36 -14 -15 -12 -22 -21 -16 -21 6 0 18 7 26 16
14 13 16 13 16 1 0 -8 11 -18 25 -21 31 -8 32 -22 3 -32 -13 -3 -31 -15 -41
-25 -10 -11 -27 -19 -37 -19 -25 0 -27 -20 -2 -21 11 0 12 -2 4 -6 -9 -4 -10
-8 -2 -18 8 -9 6 -17 -5 -29 -15 -15 -15 -16 7 -17 13 0 17 -3 10 -6 -7 -3
-20 -2 -28 1 -13 5 -14 9 -5 20 8 10 9 16 1 21 -6 3 -8 11 -5 16 4 5 1 9 -4 9
-6 0 -11 9 -11 21 0 11 -4 17 -10 14 -11 -7 -70 22 -70 34 0 5 8 7 19 4 10 -3
22 0 25 6 4 6 3 11 -3 11 -6 0 -8 7 -4 16 5 14 2 16 -21 10 -16 -4 -25 -3 -22
2 8 14 -28 21 -48 10 -9 -5 -26 -6 -37 -3 -13 5 -25 2 -30 -6 -6 -10 -11 -6
-18 14 -13 33 -41 36 -42 5 l0 -23 -9 23 c-6 13 -18 22 -30 22 -12 0 -19 4
-15 9 3 5 1 12 -5 16 -6 4 -10 -9 -11 -32 -1 -36 -2 -35 -11 15 -5 28 -14 52
-19 52 -6 0 -18 7 -27 17 -15 15 -17 14 -23 -8 l-7 -24 -1 25 c-2 36 -18 59
-30 42 -7 -11 -9 -11 -14 2 -4 9 -2 16 3 16 6 0 10 5 10 10 0 6 -7 10 -15 10
-11 0 -15 -14 -17 -57 l-1 -58 -6 55 c-7 64 -3 92 11 83 6 -3 8 0 6 8 -3 8
-11 13 -18 11 -8 -2 -10 3 -7 13 4 10 0 15 -11 16 -10 0 -12 3 -4 6 14 5 17
33 3 33 -5 0 -14 -7 -22 -16 -11 -14 -13 -14 -21 0 -14 24 -26 19 -20 -9 6
-32 -21 -44 -45 -19 -17 17 -18 17 -21 -4 -2 -12 -7 -22 -12 -22 -5 0 -16 -7
-24 -16 -10 -10 -16 -11 -16 -3 0 9 -4 9 -15 -1 -12 -10 -16 -8 -24 13 -5 14
-15 28 -22 33 -9 5 -10 2 -6 -9 3 -10 2 -17 -3 -17 -5 0 -12 9 -15 20 -3 11
-15 20 -26 20 -38 0 -36 7 -25 -98 4 -45 2 -52 -11 -50 -10 2 -19 -6 -22 -20
-3 -13 -9 -23 -14 -23 -23 2 -28 -1 -25 -16 2 -10 7 -21 12 -25 6 -4 5 -12 -2
-20 -7 -9 -8 -19 -2 -28 6 -8 10 -10 10 -5 0 17 57 17 64 0 6 -16 -20 -34 -51
-36 -11 0 -13 -3 -5 -6 10 -4 9 -8 -5 -19 -17 -13 -17 -13 2 -14 92 -3 241
-13 244 -16 2 -2 -56 -5 -130 -5 -74 -1 -126 -3 -116 -6 9 -2 17 -8 17 -13 0
-4 10 -6 21 -3 18 5 20 3 11 -13 -5 -10 -7 -24 -5 -30 2 -6 -10 -14 -27 -17
-36 -8 -42 -37 -6 -37 34 0 41 -28 14 -51 l-23 -19 73 1 c90 2 124 8 116 21
-4 6 26 8 79 6 61 -2 83 0 80 8 -2 7 1 15 7 19 15 10 61 115 54 126 -3 5 10 9
28 8 25 -1 28 -3 13 -7 -11 -4 -21 -13 -23 -20 -6 -32 -92 -202 -101 -202 -7
0 -7 8 -1 25 6 16 6 25 0 25 -6 0 -10 -4 -10 -10 0 -5 -14 -10 -31 -10 -17 0
-40 -5 -51 -11 -15 -8 -19 -8 -14 0 4 6 2 11 -3 11 -6 0 -11 -6 -11 -12 -1 -8
-7 -5 -15 6 -16 21 -48 15 -39 -8 4 -11 0 -13 -18 -9 -13 4 -26 11 -30 17 -5
8 -8 7 -8 -1 0 -7 -10 -13 -22 -13 -19 -1 -18 -3 10 -15 17 -8 32 -18 32 -22
0 -4 -27 -8 -61 -9 -44 -1 -59 2 -55 11 2 7 -1 18 -7 25 -10 10 -7 12 11 7 12
-3 22 -2 22 3 0 4 -14 10 -30 12 -32 5 -44 -17 -15 -28 31 -12 3 -21 -72 -23
-43 0 -96 -3 -117 -5 l-39 -3 34 29 c21 18 27 26 14 21 -45 -15 -66 -36 -63
-62 3 -22 8 -26 35 -27 18 0 35 -3 38 -6 9 -9 -52 -21 -65 -13 -5 3 -10 2 -10
-4 0 -5 12 -12 28 -14 l27 -4 -27 -2 c-16 0 -28 -6 -28 -12 0 -7 10 -9 25 -7
32 7 32 0 0 -12 l-25 -10 0 -435 c0 -399 1 -436 16 -433 10 2 19 -3 22 -11 3
-9 -1 -11 -17 -6 -20 6 -21 3 -21 -79 l0 -86 150 0 c120 0 148 3 144 13 -3 8
2 14 11 14 8 0 15 -7 15 -16 0 -13 2 -13 9 -2 6 9 11 10 15 2 9 -14 633 -13
642 0 3 5 -3 9 -12 9 -26 0 -14 6 26 13 27 5 31 4 18 -4 -10 -5 -18 -14 -18
-19 0 -10 977 -13 1019 -3 l24 6 -23 12 -23 13 21 7 c13 3 35 4 50 1 15 -3 55
-7 89 -8 40 -2 59 -6 53 -12 -6 -6 -10 -14 -10 -18 0 -13 20 -9 36 7 9 8 20
15 27 15 6 0 2 -7 -9 -16 -17 -14 -11 -15 71 -9 50 3 95 5 100 4 6 -1 137 -3
293 -5 l283 -4 -3 132 c-3 126 -4 133 -22 130 -17 -3 -18 -2 -6 13 11 13 11
18 0 28 -10 9 -14 9 -17 0 -2 -7 -10 -10 -18 -7 -14 6 -47 -22 -65 -55 -6 -12
-18 -21 -27 -21 -14 0 -14 3 3 21 10 12 17 23 14 25 -3 2 3 13 13 24 23 28 21
39 -7 36 -19 -2 -23 1 -19 18 4 21 4 21 -11 2 -14 -17 -16 -18 -16 -3 0 9 -4
17 -10 17 -5 0 -10 -7 -10 -15 0 -9 -6 -12 -15 -9 -11 5 -13 10 -5 19 10 12 2
15 -43 16 -15 0 -16 3 -7 14 6 8 17 13 23 11 7 -1 9 -1 5 1 -4 2 -4 11 -1 19
3 8 0 14 -6 14 -10 0 -29 -35 -36 -65 -12 -51 -27 -95 -34 -99 -4 -3 -13 6
-19 19 -10 21 -16 24 -44 18 -18 -4 -39 -12 -46 -20 -19 -19 -24 -16 -12 7 6
11 17 20 25 20 8 0 15 5 15 10 0 6 -4 10 -10 10 -5 0 -10 4 -10 9 0 5 9 7 20
4 15 -4 19 -1 15 9 -8 20 -69 11 -91 -13 -10 -11 -19 -30 -21 -42 -3 -20 -13
-30 -28 -28 -3 1 -11 -4 -19 -11 -11 -10 -11 -15 1 -26 7 -7 13 -18 13 -25 0
-6 -6 -2 -14 9 -12 15 -17 17 -27 7 -15 -15 -33 -17 -24 -3 3 5 -1 10 -9 10
-9 0 -15 -6 -14 -12 2 -8 -9 -14 -24 -16 -20 -2 -28 1 -28 12 0 9 -5 16 -11
16 -6 0 -9 6 -6 13 3 7 -1 21 -9 32 -11 15 -11 21 -1 28 7 5 -1 6 -20 2 -27
-5 -32 -4 -27 9 4 11 0 16 -14 16 -11 0 -22 -5 -24 -10 -2 -6 -22 -12 -45 -14
-33 -4 -41 -1 -36 9 3 10 15 13 36 9 18 -2 26 -2 20 2 -29 13 -10 23 42 21 58
-3 66 4 38 31 -14 14 -16 14 -11 1 5 -13 -3 -14 -54 -11 -44 3 -59 1 -54 -7 4
-6 0 -11 -9 -11 -9 0 -14 -4 -11 -9 3 -5 -2 -19 -12 -32 -16 -19 -29 -22 -90
-24 -40 -1 -72 1 -72 5 0 10 -132 6 -149 -4 -10 -7 -21 -1 -37 17 -24 29 -90
40 -81 15 7 -20 -22 -46 -43 -41 -11 3 -18 9 -15 13 3 5 -8 11 -25 15 -22 5
-29 12 -27 25 5 29 17 37 17 11 0 -14 4 -20 12 -15 7 4 8 3 4 -4 -12 -20 39
-14 65 7 17 14 30 16 57 10 18 -4 36 -10 39 -13 3 -3 15 -1 26 5 13 7 17 7 13
1 -3 -6 -2 -13 4 -17 5 -3 10 -2 10 3 0 5 9 12 20 15 11 3 19 11 18 19 -2 8 6
13 22 13 28 0 45 19 34 38 -4 6 1 5 11 -5 14 -13 23 -14 46 -6 30 10 37 22 19
33 -6 4 -8 11 -5 16 10 15 -2 10 -21 -8 -17 -17 -18 -17 -11 -1 3 10 2 18 -4
18 -6 0 -8 4 -4 10 7 11 33 3 57 -18 10 -8 36 -15 58 -16 22 0 40 -4 40 -8 0
-5 -7 -8 -16 -8 -9 0 -14 -7 -12 -17 3 -13 12 -17 33 -15 16 2 35 8 41 13 6 5
15 4 22 -3 18 -18 50 15 34 35 -12 13 -7 27 9 27 5 0 6 -6 3 -14 -3 -7 2 -16
12 -20 11 -4 15 -2 11 8 -3 7 -1 18 5 24 8 8 3 13 -17 18 -20 5 -31 2 -40 -9
-6 -9 -22 -18 -36 -20 -13 -2 -18 -2 -11 0 6 3 12 8 12 13 0 5 -6 11 -12 13
-12 5 17 11 36 8 4 -1 14 3 21 9 14 11 76 10 69 -1 -2 -4 6 -9 19 -12 26 -7
43 -5 40 5 -2 4 4 5 13 1 11 -4 12 -8 4 -13 -8 -5 -6 -9 6 -14 21 -8 29 0 38
36 4 17 1 28 -7 32 -6 3 13 4 43 2 52 -2 55 -4 64 -35 12 -43 48 -61 74 -38
17 16 20 16 38 -1 11 -10 26 -16 33 -14 8 3 11 0 7 -6 -4 -6 3 -6 18 1 27 13
25 27 -5 27 -11 0 -22 7 -25 15 -4 8 -10 13 -14 10 -4 -3 -11 2 -14 11 -3 8
-11 12 -17 8 -8 -4 -7 -9 2 -15 10 -6 10 -9 2 -9 -6 0 -15 5 -18 10 -9 15 -23
12 -27 -6 -3 -14 -6 -14 -27 3 l-24 20 42 -1 c29 -1 40 3 36 12 -3 8 6 12 28
12 23 0 28 -3 18 -9 -12 -8 -9 -11 11 -16 15 -4 32 -4 37 0 6 3 11 2 11 -4 0
-5 -8 -11 -17 -13 -16 -4 -16 -5 2 -14 11 -6 31 -8 45 -3 16 4 19 7 8 8 -10 1
-22 10 -29 22 -7 14 -17 19 -30 16 -10 -3 -17 -1 -13 4 3 5 15 9 27 9 25 0 53
15 41 22 -5 2 -20 4 -34 4 -14 -1 -31 4 -38 11 -7 7 -20 10 -30 7 -14 -5 -14
-4 -2 4 8 6 18 8 22 6 4 -3 5 2 1 11 -4 12 -8 13 -13 5 -5 -8 -10 -8 -14 -2
-3 5 1 13 10 16 8 3 12 10 9 16 -3 5 2 10 12 10 15 0 61 37 50 41 -20 6 -44 6
-56 -1 -13 -8 -13 -9 -2 -10 20 0 4 -15 -16 -15 -9 0 -18 -7 -20 -15 -4 -13
-3 -13 7 0 8 10 10 11 8 2 -6 -21 -22 -15 -30 10 -3 13 -6 17 -7 11 -1 -7 -7
-13 -15 -13 -8 0 -18 -5 -22 -12 -5 -8 -2 -9 9 -5 10 3 17 2 17 -3 0 -16 -37
-11 -44 6 -3 8 -2 13 3 10 5 -3 15 1 22 10 10 13 10 17 -1 24 -8 5 -10 15 -6
26 6 17 5 16 -14 -1 -21 -19 -21 -19 -11 8 13 33 -5 38 -19 4 -5 -12 -9 -18
-9 -13 -1 5 -7 3 -15 -3 -10 -9 -16 -9 -21 -1 -4 7 2 14 14 17 22 6 30 25 9
21 -7 -2 -12 6 -13 18 0 11 -7 29 -14 38 -13 16 -13 17 5 14 11 -2 18 2 16 10
-1 6 4 12 10 13 7 0 -7 9 -32 19 l-45 19 35 2 c19 1 27 3 17 6 -9 2 -14 9 -11
15 5 8 -3 9 -24 5 -30 -6 -60 12 -45 26 3 4 1 7 -5 7 -6 0 -10 -9 -9 -19 0
-11 5 -17 9 -15 4 3 8 0 8 -5 0 -15 -28 -14 -32 2 -2 10 -11 9 -38 -4 -30 -15
-32 -18 -16 -25 11 -4 21 -2 27 7 6 10 9 10 9 2 0 -7 7 -10 15 -7 8 4 15 2 15
-4 0 -5 -16 -12 -35 -14 -19 -2 -35 -2 -35 2 0 3 -24 4 -52 3 -44 -2 -49 -1
-31 8 12 6 24 20 26 31 5 19 5 19 -13 3 -11 -10 -24 -14 -31 -9 -7 4 -10 3 -6
-3 4 -6 -2 -18 -13 -28 -20 -18 -20 -17 -21 36 0 30 -2 87 -4 126 l-4 73 34 0
c18 0 36 -3 38 -7 3 -5 34 -6 69 -4 l63 5 -100 10 -100 11 -7 75 c-3 41 -3 77
2 80 9 5 26 96 23 120 -4 22 19 110 28 110 5 0 10 -21 12 -47 3 -44 4 -43 5
14 1 34 5 70 8 80 5 15 4 16 -6 3 -9 -12 -10 -9 -5 15 4 16 10 32 14 35 18 12
28 49 29 105 0 33 7 78 16 100 8 22 24 65 35 95 25 66 27 98 5 107 -21 8 -46
-7 -61 -38 l-13 -24 0 27 c0 15 -4 29 -9 32 -5 4 -15 39 -21 79 -6 39 -18 95
-25 122 -8 28 -16 65 -19 84 -2 18 -8 37 -13 41 -17 16 -88 50 -105 50 -10 0
-18 5 -18 11 0 5 -4 7 -10 4 -5 -3 -16 -3 -22 2 -7 4 -22 7 -33 8 -16 0 -21 8
-23 38 -2 21 1 37 7 37 14 0 14 67 1 75 -5 3 -10 15 -10 25 0 39 -55 68 -105
56 -57 -14 -70 -120 -25 -204 18 -33 18 -36 2 -48 -9 -8 -23 -14 -31 -14 -48
-1 -79 -24 -100 -74 -27 -65 -26 -70 5 -95 25 -20 26 -23 21 -103 -3 -46 -10
-103 -17 -128 -7 -28 -9 -81 -5 -142 6 -99 2 -112 -35 -113 -8 0 -14 -6 -12
-14 2 -8 -1 -17 -5 -20 -12 -9 -34 -61 -25 -61 19 0 50 -103 58 -194 5 -51 4
-67 -5 -61 -14 8 -121 -33 -121 -46 0 -13 75 -3 111 15 18 9 33 15 34 14 2 -2
17 -37 35 -78 18 -41 44 -94 58 -118 14 -25 21 -47 16 -52 -10 -9 -151 -102
-219 -144 -25 -15 -44 -30 -42 -33 3 -2 29 11 58 30 30 19 77 46 104 61 28 14
64 37 82 52 l32 25 12 -23 c6 -13 23 -36 35 -51 44 -52 22 -131 -31 -111 -13
5 -10 12 17 35 l33 29 -29 -15 c-16 -7 -34 -11 -39 -8 -6 3 -7 1 -3 -5 9 -14
-33 -37 -62 -33 -13 1 -21 -2 -20 -10 2 -6 -4 -14 -12 -16 -10 -3 -11 -2 -4 4
6 4 8 17 4 27 -4 14 -9 16 -14 8 -4 -7 -16 -12 -27 -12 -10 0 -19 -4 -19 -10
0 -5 -7 -7 -16 -3 -15 6 -15 7 1 20 35 25 6 25 -31 -1 -20 -14 -42 -22 -47
-19 -6 3 -7 1 -3 -5 3 -6 1 -12 -6 -15 -7 -2 -5 -3 5 -2 9 2 17 -1 17 -6 0 -5
10 -9 22 -9 21 0 21 -1 3 -13 -10 -8 -15 -19 -11 -25 11 -18 21 -14 36 13 9
17 21 25 39 24 14 0 20 -3 14 -6 -7 -2 -13 -14 -13 -25 0 -14 4 -18 13 -12 6
5 27 9 44 9 27 -1 32 2 27 17 -4 14 0 18 20 18 14 0 26 -5 26 -11 0 -6 -6 -9
-13 -6 -8 3 -14 -3 -14 -15 -2 -16 1 -17 13 -8 11 10 14 10 14 1 0 -7 4 -10 8
-7 5 3 9 -1 9 -9 0 -11 -4 -12 -14 -4 -8 8 -13 8 -13 1 0 -5 -9 -8 -20 -5 -12
3 -20 0 -20 -6 0 -7 5 -9 12 -5 6 4 8 3 5 -3 -4 -6 -18 -8 -33 -5 -16 3 -29
-1 -35 -9 -7 -11 -9 -10 -9 4 0 19 -16 23 -22 5 -2 -6 -19 -11 -37 -11 -33 0
-33 0 -9 -14 l23 -14 -25 5 c-14 3 -32 1 -40 -4 -11 -7 -6 -10 20 -11 19 -1
27 -3 18 -6 -10 -2 -18 -12 -18 -21 0 -11 -3 -13 -8 -6 -5 9 -11 8 -20 -2 -10
-12 -10 -14 3 -14 8 0 15 -4 15 -10 0 -5 -7 -6 -17 -3 -11 4 -14 3 -9 -5 4 -7
3 -12 -1 -12 -5 0 -14 28 -21 63 -6 34 -16 86 -22 116 -6 29 -9 60 -6 68 3 8
2 12 -2 9 -7 -4 -65 245 -77 329 -6 40 -19 104 -71 340 -107 490 -114 529
-102 536 9 6 8 17 -6 45 -9 21 -26 76 -36 123 -11 47 -24 106 -30 131 -26 101
-46 229 -37 227 5 -1 12 4 15 12 3 10 0 12 -11 8 -11 -4 -14 -2 -10 9 14 38
-32 4 -127 -95z m31 -109 c7 -19 6 -20 -16 -10 -32 14 -41 39 -13 35 12 -2 25
-13 29 -25z m-51 -2 c0 -5 -7 -7 -15 -4 -8 4 -15 8 -15 10 0 2 7 4 15 4 8 0
15 -4 15 -10z m937 -24 c-3 -7 0 -19 6 -25 8 -8 8 -11 -2 -11 -11 0 -11 -3 -1
-15 11 -13 11 -23 0 -54 -7 -21 -9 -47 -6 -58 5 -15 0 -23 -20 -32 -22 -10
-26 -9 -21 3 4 9 2 18 -3 21 -6 4 -7 17 -4 31 5 20 3 24 -16 24 -19 0 -21 -4
-16 -24 7 -30 -6 -40 -42 -31 -15 4 -21 10 -14 12 6 3 12 13 12 23 0 34 12 50
34 46 11 -2 15 -1 9 1 -24 8 -13 23 12 17 16 -4 25 -2 25 6 0 7 -7 10 -15 6
-8 -3 -15 -1 -15 4 0 6 5 10 10 10 6 0 10 6 10 14 0 13 27 31 43 28 4 -1 7 3
7 8 0 6 3 10 6 10 3 0 4 -6 1 -14z m-797 -152 c0 -2 -7 -4 -15 -4 -8 0 -15 4
-15 10 0 5 7 7 15 4 8 -4 15 -8 15 -10z m27 -93 c-3 -15 -2 -32 4 -38 6 -6 6
-19 1 -33 -7 -19 -10 -21 -15 -7 -4 10 -2 17 3 17 6 0 10 5 10 11 0 5 -4 8 -9
5 -5 -3 -11 10 -13 29 -3 30 2 40 21 44 2 1 1 -12 -2 -28z m963 -11 c0 -5 -5
-10 -11 -10 -5 0 -7 5 -4 10 3 6 8 10 11 10 2 0 4 -4 4 -10z m34 -175 c5 -17
10 -50 12 -75 2 -25 8 -58 12 -73 4 -16 4 -61 1 -100 -4 -40 -3 -89 2 -110 8
-31 6 -53 -12 -113 -12 -41 -26 -74 -31 -74 -5 0 -6 -5 -3 -10 8 -14 -4 -50
-17 -50 -9 0 -7 74 7 175 17 133 17 185 -1 241 -12 40 -15 59 -7 61 8 3 10 32
6 96 -6 81 -5 90 9 77 8 -8 18 -29 22 -45z m-146 -126 c-12 -7 -24 -7 -35 0
-15 9 -12 10 17 10 29 0 32 -1 18 -10z m-248 -91 c-26 -111 -52 -179 -64 -167
-3 3 2 18 10 34 8 16 19 49 25 74 18 84 30 123 36 118 3 -3 0 -30 -7 -59z
m-1305 -38 c3 -6 -4 -10 -17 -10 -18 0 -20 2 -8 10 19 12 18 12 25 0z m1491
-192 c14 -26 16 -51 11 -135 -4 -84 -2 -103 9 -103 16 0 16 0 19 -55 2 -22 8
-53 14 -69 14 -35 4 -44 -38 -38 -37 5 -37 32 1 32 15 0 28 4 28 9 0 15 -18
23 -25 11 -3 -6 -19 -9 -35 -8 -21 2 -30 9 -35 26 -3 14 -17 39 -30 56 -29 38
-46 106 -33 130 6 10 7 20 4 23 -9 10 76 153 90 153 2 0 11 -14 20 -32z
m-1472 -44 c3 -8 2 -12 -4 -9 -6 3 -10 10 -10 16 0 14 7 11 14 -7z m-50 -10
c5 -14 4 -15 -9 -4 -17 14 -19 20 -6 20 5 0 12 -7 15 -16z m181 -44 c7 -12
-22 -12 -50 0 -17 7 -15 9 12 9 17 1 35 -3 38 -9z m63 -7 c-10 -2 -26 -2 -35
0 -10 3 -2 5 17 5 19 0 27 -2 18 -5z m172 -9 c0 -2 -18 -4 -40 -4 -22 0 -40 3
-40 8 0 4 18 6 40 4 22 -2 40 -6 40 -8z m497 -104 c-3 -10 -1 -20 4 -22 5 -2
14 -26 19 -53 5 -28 21 -104 35 -170 15 -66 33 -156 41 -200 7 -44 20 -113 27
-152 12 -64 11 -73 -2 -73 -11 0 -10 -3 5 -14 23 -17 19 -22 -26 -30 -28 -6
-32 -5 -20 4 13 10 12 11 -3 6 -10 -3 -27 0 -38 7 -17 10 -22 9 -35 -7 -13
-18 -19 -15 -15 7 2 10 -36 -9 -44 -22 -3 -5 -1 -12 5 -16 17 -10 11 -25 -10
-25 -11 0 -20 -4 -20 -9 0 -5 -12 -9 -27 -9 -16 0 -42 -2 -59 -6 -16 -4 -41
-2 -55 3 -21 9 -19 10 12 5 21 -3 39 -1 43 5 4 5 14 8 24 5 14 -5 15 -4 2 5
-9 6 -18 7 -24 1 -17 -17 -29 -11 -15 7 12 14 12 16 0 9 -20 -13 -109 -17
-116 -6 -10 17 -25 11 -19 -7 5 -15 4 -15 -4 -4 -9 13 -13 13 -28 0 -14 -11
-18 -11 -22 -1 -3 10 -7 10 -18 1 -11 -9 -18 -9 -25 -2 -8 8 -5 13 10 18 12 3
18 11 15 17 -4 7 -2 8 4 4 7 -4 21 -9 33 -11 15 -3 19 0 15 10 -6 17 9 21 19
5 10 -16 25 -12 25 8 0 14 2 15 10 2 8 -12 10 -12 10 -1 0 15 -28 40 -45 41
-5 0 -3 -4 5 -10 25 -16 3 -23 -29 -9 -35 16 -36 32 -3 37 12 2 20 8 17 13 -7
11 -42 12 -47 2 -1 -5 -16 5 -31 21 -16 16 -22 26 -13 23 8 -3 18 -2 21 2 2 5
-9 11 -26 13 -22 3 -29 1 -25 -9 3 -7 1 -13 -3 -13 -5 0 -11 7 -15 15 -7 19
-35 20 -42 1 -3 -8 -12 -12 -20 -9 -10 4 -13 0 -8 -13 5 -16 4 -17 -6 -4 -9
11 -13 12 -17 3 -7 -19 -27 -16 -41 8 -12 19 -11 20 14 17 16 -2 28 2 30 10 1
7 0 8 -2 4 -3 -5 -19 -6 -37 -2 -27 6 -36 3 -54 -19 -12 -14 -22 -20 -23 -13
0 6 5 12 10 12 15 0 12 17 -2 17 -7 0 -33 6 -57 12 -36 10 -45 10 -52 -1 -5
-7 -9 -8 -9 -2 0 20 25 34 61 34 40 0 59 14 34 24 -8 3 -15 1 -15 -4 0 -20
-31 -9 -41 13 -10 21 -16 23 -56 19 -39 -4 -45 -2 -40 12 4 9 2 16 -4 16 -6 0
-9 -8 -8 -17 3 -31 -1 -44 -11 -38 -5 3 -7 12 -3 20 6 17 -12 21 -22 5 -4 -7
-14 -3 -25 10 -16 19 -36 29 -27 13 8 -13 -57 -9 -71 4 -11 11 -6 13 26 13 22
0 42 5 44 11 2 6 18 12 35 13 38 2 56 16 22 17 -22 0 -22 1 -4 8 11 5 24 6 28
4 4 -3 14 0 21 6 10 9 27 14 65 20 3 1 0 6 -7 13 -8 8 -15 8 -28 -3 -15 -12
-17 -12 -9 0 6 11 4 13 -8 8 -9 -3 -19 -2 -22 3 -6 9 15 14 42 11 7 -1 13 3
13 9 0 5 9 10 21 10 11 0 18 4 14 9 -7 13 25 19 57 10 21 -6 25 -4 21 7 -3 8
0 14 7 14 6 0 8 5 5 10 -4 6 5 10 20 10 14 0 49 12 78 27 29 15 60 26 70 24 9
-1 17 3 17 8 0 6 9 11 20 11 11 0 20 5 20 10 0 6 8 10 18 10 14 0 15 2 2 10
-12 8 -10 10 10 11 34 3 41 4 73 17 16 7 61 13 100 13 40 1 60 4 45 6 -16 2
-28 7 -28 11 0 11 40 33 49 27 5 -2 12 6 15 19 3 13 11 24 18 23 57 -2 108 5
103 13 -3 6 1 10 9 10 9 0 16 5 16 10 0 6 3 10 6 10 4 0 4 -9 1 -20z m-724
-27 c-7 -2 -21 -2 -30 0 -10 3 -4 5 12 5 17 0 24 -2 18 -5z m-452 -150 c-33
-11 -46 -12 -51 -3 -5 8 -19 10 -41 5 -23 -4 -29 -3 -20 3 7 5 45 10 85 10
l71 0 -44 -15z m69 -4 c-12 -9 -11 -10 8 -6 44 10 11 -10 -45 -27 -93 -28 -96
-29 -89 -18 3 6 -2 13 -11 16 -10 3 0 4 22 1 22 -2 54 2 70 10 35 15 19 20
-19 5 -17 -6 -26 -6 -26 0 0 5 12 12 28 16 15 3 32 7 37 9 6 2 17 4 25 4 13 1
13 0 0 -10z m1794 -24 c4 -11 -2 -15 -21 -15 -32 0 -23 -12 9 -14 19 -1 23 -6
22 -31 -3 -52 -4 -56 -15 -50 -6 4 -8 13 -5 21 3 8 0 13 -6 11 -7 -1 -14 7
-16 18 -2 11 -9 23 -14 26 -12 8 12 49 28 49 7 0 14 -7 18 -15z m-1391 -42
c-7 -2 -19 -2 -25 0 -7 3 -2 5 12 5 14 0 19 -2 13 -5z m1387 -191 c0 -5 -11
-19 -26 -33 -19 -18 -24 -19 -20 -6 4 9 8 24 11 32 5 16 35 21 35 7z m-1713
-8 c-3 -3 -12 -4 -19 -1 -8 3 -5 6 6 6 11 1 17 -2 13 -5z m1308 -4 c3 -5 -1
-10 -10 -10 -9 0 -13 5 -10 10 3 6 8 10 10 10 2 0 7 -4 10 -10z m195 -10 c0
-5 -2 -10 -4 -10 -3 0 -8 5 -11 10 -3 6 -1 10 4 10 6 0 11 -4 11 -10z m-1538
-18 c-22 -3 -22 -5 -6 -16 16 -12 16 -13 0 -19 -10 -4 -15 -3 -11 3 7 12 1 12
-48 1 -28 -7 -37 -6 -34 2 2 7 16 14 32 15 16 2 38 10 49 17 10 8 24 11 30 7
6 -4 1 -8 -12 -10z m318 -29 c0 -12 -2 -12 -15 1 -8 8 -15 17 -15 20 0 3 7 3
15 0 8 -4 15 -13 15 -21z m-445 11 c12 -5 14 -9 4 -14 -15 -10 -41 -1 -33 11
6 11 8 11 29 3z m395 -4 c-18 -12 -30 -13 -30 -2 0 4 10 9 22 9 18 2 20 0 8
-7z m1300 -10 c0 -5 -9 -6 -20 -3 -11 3 -20 9 -20 13 0 5 9 6 20 3 11 -3 20
-9 20 -13z m418 8 c34 -1 40 -4 31 -15 -6 -7 -25 -13 -41 -13 -17 0 -27 -4
-23 -10 3 -5 1 -10 -4 -10 -17 0 -13 18 7 29 22 13 15 13 -26 2 -20 -6 -30 -6
-27 0 4 5 0 9 -7 9 -9 0 -9 3 2 10 8 5 22 7 30 5 9 -3 35 -6 58 -7z m-648 -2
c0 -3 -4 -8 -10 -11 -5 -3 -10 -1 -10 4 0 6 5 11 10 11 6 0 10 -2 10 -4z m324
-21 c3 -9 0 -15 -9 -15 -9 0 -12 6 -9 15 4 8 7 15 9 15 2 0 5 -7 9 -15z
m-1514 -5 c-12 -8 -10 -10 10 -11 14 0 19 -3 12 -6 -6 -2 -10 -9 -6 -14 3 -5
-6 -4 -20 2 -37 17 -42 39 -8 39 21 0 24 -2 12 -10z m135 -10 c-3 -5 -12 -10
-19 -10 -7 0 -18 -10 -25 -22 -6 -13 -9 -15 -7 -5 4 14 1 16 -19 13 -17 -3
-25 0 -25 9 0 7 7 11 18 9 9 -2 31 0 47 5 17 5 31 10 33 10 2 1 0 -3 -3 -9z
m1345 -6 c0 -2 -19 -4 -42 -3 -35 1 -38 2 -18 8 23 7 60 4 60 -5z m-1553 -16
c-3 -8 -6 -5 -6 6 -1 11 2 17 5 13 3 -3 4 -12 1 -19z m37 6 c5 -14 4 -15 -9
-4 -17 14 -19 20 -6 20 5 0 12 -7 15 -16z m1911 -4 c3 -5 2 -10 -4 -10 -5 0
-13 5 -16 10 -3 6 -2 10 4 10 5 0 13 -4 16 -10z m-565 -31 c0 -6 -4 -7 -10 -4
-5 3 -10 2 -10 -4 0 -7 -8 -7 -24 -1 -17 6 -26 5 -28 -2 -3 -7 -7 -4 -11 6 -6
15 -3 17 22 11 17 -3 32 -2 36 5 7 12 25 4 25 -11z m708 9 c9 -9 12 -9 12 3 0
12 2 12 10 -1 14 -23 -7 -42 -31 -27 -10 6 -19 17 -19 24 0 16 12 17 28 1z
m-1788 -8 c-12 -8 -12 -10 -1 -10 8 0 12 -2 9 -5 -3 -3 -13 -3 -22 1 -19 7
-11 24 12 24 15 0 15 -2 2 -10z m207 -5 c0 -8 -4 -12 -9 -9 -4 3 -8 9 -8 15 0
5 4 9 8 9 5 0 9 -7 9 -15z m943 6 c0 -6 -9 -9 -19 -8 -11 0 -17 5 -15 9 7 11
34 10 34 -1z m565 -11 c3 -6 -1 -7 -9 -4 -18 7 -21 14 -7 14 6 0 13 -4 16 -10z
m-145 -4 c0 -2 -7 -7 -16 -10 -8 -3 -12 -2 -9 4 6 10 25 14 25 6z m-144 -48
c1 -9 -7 -18 -17 -21 -20 -5 -26 7 -9 18 6 4 7 11 4 17 -4 6 -1 9 6 6 7 -2 14
-11 16 -20z m-1131 -1 c-3 -7 7 -20 22 -29 27 -17 27 -17 5 -18 -13 0 -20 4
-17 10 3 6 1 11 -4 11 -26 3 -30 4 -37 12 -5 4 -2 12 6 17 21 13 30 12 25 -3z
m1170 3 c-3 -5 -10 -10 -16 -10 -5 0 -9 5 -9 10 0 6 7 10 16 10 8 0 12 -4 9
-10z m-1390 -30 c3 -5 1 -10 -4 -10 -6 0 -11 5 -11 10 0 6 2 10 4 10 3 0 8 -4
11 -10z m1452 -22 c-3 -7 -5 -2 -5 12 0 14 2 19 5 13 2 -7 2 -19 0 -25z m-68
15 c-1 -5 -1 -14 0 -22 1 -12 4 -11 14 3 12 16 14 16 36 -3 13 -12 22 -23 19
-26 -3 -3 -11 1 -18 10 -16 19 -31 19 -24 0 5 -11 2 -13 -10 -9 -9 3 -16 2
-16 -3 0 -6 46 -13 103 -17 56 -4 118 -8 137 -10 19 -2 77 -7 128 -11 50 -4
95 -11 98 -17 4 -5 -7 -7 -28 -3 -32 5 -53 7 -268 19 -218 13 -255 18 -237 28
10 5 26 6 37 3 11 -4 20 -2 20 4 0 13 -76 15 -84 2 -3 -4 -61 -11 -128 -15
-68 -3 -150 -9 -183 -12 -33 -4 -57 -3 -54 0 4 4 26 9 50 11 24 2 82 8 129 14
47 5 94 10 105 10 11 1 53 4 93 7 58 5 70 9 62 19 -10 12 -6 17 18 24 1 1 1
-2 1 -6z m-373 -11 c-10 -16 -98 -54 -106 -46 -17 17 6 35 51 40 24 3 46 7 48
10 7 7 12 4 7 -4z m-390 -40 c-16 -2 -32 0 -37 5 -5 5 7 7 29 4 34 -5 35 -6 8
-9z m264 8 c-10 -6 -11 -10 -2 -10 6 0 12 -5 12 -11 0 -5 -4 -8 -9 -5 -5 3
-11 -1 -15 -9 -6 -17 -36 -21 -36 -4 0 5 4 8 9 4 5 -3 12 -1 16 5 3 6 -4 10
-16 10 -38 0 1 24 46 29 6 0 3 -4 -5 -9z m-700 -20 c0 -5 -5 -10 -11 -10 -5 0
-7 5 -4 10 3 6 8 10 11 10 2 0 4 -4 4 -10z m590 -25 c0 -8 -6 -15 -12 -16 -7
0 -21 -2 -30 -4 -11 -2 -18 3 -18 12 0 11 7 14 26 9 17 -5 23 -3 19 4 -3 5 -1
10 4 10 6 0 11 -7 11 -15z m-627 -20 c-3 -9 -8 -14 -10 -11 -3 3 -2 9 2 15 9
16 15 13 8 -4z m72 5 c-3 -5 -16 -10 -28 -9 -20 1 -20 2 3 9 14 4 26 8 28 9 2
1 0 -3 -3 -9z m89 -6 c3 -8 2 -12 -4 -9 -6 3 -10 10 -10 16 0 14 7 11 14 -7z
m-74 -8 c0 -2 -6 -9 -14 -15 -11 -9 -16 -9 -22 0 -4 7 -3 9 4 5 6 -3 13 -2 17
4 6 10 15 14 15 6z m1425 -6 c-3 -5 -14 -10 -23 -10 -15 0 -15 2 -2 10 20 13
33 13 25 0z m-1545 -20 c18 -12 2 -12 -25 0 -13 6 -15 9 -5 9 8 0 22 -4 30 -9z
m1295 -30 c-3 -5 -16 -10 -28 -9 -21 0 -21 1 -2 9 28 12 37 12 30 0z m-1366
-13 c13 5 13 3 4 -7 -13 -15 -43 -7 -43 12 0 9 3 9 11 1 6 -6 19 -9 28 -6z
m599 6 c-10 -2 -28 -2 -40 0 -13 2 -5 4 17 4 22 1 32 -1 23 -4z m-735 -10 c-7
-2 -19 -2 -25 0 -7 3 -2 5 12 5 14 0 19 -2 13 -5z m202 -3 c-3 -5 -10 -10 -16
-10 -5 0 -9 5 -9 10 0 6 7 10 16 10 8 0 12 -4 9 -10z m1040 0 c3 -5 27 -10 52
-10 26 0 44 -3 41 -6 -7 -6 -89 -15 -136 -14 -18 0 -40 -6 -48 -15 -9 -8 -27
-15 -41 -15 -21 0 -24 2 -13 15 7 8 18 15 25 15 7 0 16 7 19 16 4 10 14 14 26
11 11 -3 20 -1 20 4 0 12 47 11 55 -1z m-169 -9 c-4 -5 -3 -11 1 -14 5 -2 2
-2 -5 0 -8 1 -21 3 -30 3 -15 0 -15 2 -2 10 19 12 43 13 36 1z m-412 -20 c4
-5 -3 -7 -14 -4 -23 6 -26 13 -6 13 8 0 17 -4 20 -9z m219 2 c-7 -2 -19 -2
-25 0 -7 3 -2 5 12 5 14 0 19 -2 13 -5z m-88 -21 c-11 -2 -24 -9 -30 -14 -7
-8 -6 -9 3 -4 6 4 12 2 12 -3 0 -6 -6 -11 -14 -11 -7 0 -19 -7 -27 -16 -12
-14 -14 -14 -21 5 -4 12 -12 21 -18 21 -7 0 -8 -6 0 -19 13 -25 13 -31 -1 -31
-5 0 -8 4 -5 9 3 5 -1 12 -10 15 -12 5 -15 2 -10 -10 5 -14 1 -15 -31 -9 -21
4 -69 9 -108 10 -55 2 -72 -1 -82 -14 -8 -10 -12 -12 -13 -3 0 6 -7 12 -15 12
-18 0 -20 16 -3 26 6 4 14 2 16 -4 2 -8 8 -7 19 3 8 8 22 15 31 15 15 0 15 -2
2 -11 -11 -8 -8 -9 14 -4 19 4 32 2 38 -7 8 -10 9 -9 5 4 -4 12 3 17 31 22 20
3 75 11 122 19 47 7 92 11 100 8 11 -4 10 -6 -5 -9z m-441 -13 c-3 -5 2 -9 10
-9 10 0 13 -6 10 -15 -4 -8 -10 -12 -15 -9 -5 3 -9 0 -9 -5 0 -6 -6 -11 -13
-11 -18 0 -67 -23 -67 -32 0 -6 44 -3 92 7 10 2 20 0 22 -4 4 -7 -11 -10 -64
-14 -14 -1 -28 -5 -31 -9 -3 -5 -29 -10 -58 -13 -30 -3 -58 -8 -62 -11 -5 -3
-6 2 -3 10 5 12 0 16 -17 16 -18 0 -20 -3 -11 -12 7 -7 12 -16 12 -20 0 -13
-38 -9 -44 5 -3 6 -4 1 -3 -12 1 -16 -5 -26 -20 -32 -13 -5 -25 -4 -28 1 -4 6
6 10 22 10 21 0 24 3 14 9 -9 6 -22 6 -31 1 -19 -10 -61 -2 -73 14 -5 7 -12 5
-22 -8 -13 -17 -23 -18 -82 -12 -37 4 -99 9 -138 12 -108 7 -154 14 -160 25
-8 11 -5 11 75 -2 92 -15 350 -13 350 3 0 4 10 9 23 11 21 4 20 4 -3 6 -14 0
-39 -3 -55 -8 -17 -4 -39 -5 -50 -1 -14 5 4 10 55 18 84 12 101 15 115 24 6 3
38 6 73 7 57 1 62 -1 62 -20 0 -12 5 -19 13 -16 6 2 12 10 12 17 0 7 9 16 20
20 14 6 9 8 -18 8 -43 0 -70 16 -34 20 12 1 38 6 57 11 l35 9 -33 7 c-19 4
-29 11 -24 14 16 9 103 0 96 -10z m546 11 c0 -5 -17 -9 -37 -9 -38 1 -38 1 -8
9 43 11 45 11 45 0z m175 -1 c11 -17 -1 -21 -15 -4 -8 9 -8 15 -2 15 6 0 14
-5 17 -11z m129 -1 c-3 -4 -9 -8 -15 -8 -5 0 -9 4 -9 8 0 5 7 9 15 9 8 0 12
-4 9 -9z m-739 -8 c-3 -5 -11 -10 -16 -10 -6 0 -7 5 -4 10 3 6 11 10 16 10 6
0 7 -4 4 -10z m575 0 c0 -5 -7 -10 -16 -10 -8 0 -12 5 -9 10 3 6 10 10 16 10
5 0 9 -4 9 -10z m19 -29 c10 -6 2 -9 -22 -8 -21 0 -37 5 -37 9 0 11 41 10 59
-1z m181 -1 c0 -5 -4 -10 -10 -10 -5 0 -10 5 -10 10 0 6 5 10 10 10 6 0 10 -4
10 -10z m890 -5 c-7 -9 -15 -13 -17 -11 -7 7 7 26 19 26 6 0 6 -6 -2 -15z
m-1983 -1 c-3 -3 -12 -4 -19 -1 -8 3 -5 6 6 6 11 1 17 -2 13 -5z m765 -18 c3
-14 1 -31 -3 -38 -5 -7 -3 -16 4 -20 8 -5 6 -8 -5 -8 -13 0 -18 8 -18 25 0 23
-18 34 -33 19 -10 -11 -219 -15 -213 -5 4 5 22 7 41 4 26 -4 41 -1 55 12 16
14 24 15 50 7 23 -8 29 -8 24 0 -5 8 -2 9 9 5 10 -4 17 -1 17 5 0 9 3 9 12 0
18 -18 51 -15 44 3 -3 8 -2 15 3 15 5 0 11 -11 13 -24z m1234 -22 c-3 -8 -10
-12 -16 -9 -7 4 -6 14 2 28 12 24 24 8 14 -19z m-1556 7 c0 -4 -11 -6 -25 -3
-14 2 -25 6 -25 8 0 2 11 4 25 4 14 0 25 -4 25 -9z m30 -6 c0 -8 -2 -15 -4
-15 -2 0 -6 7 -10 15 -3 8 -1 15 4 15 6 0 10 -7 10 -15z m530 -10 c0 -8 -6
-12 -14 -9 -8 3 -12 12 -9 20 6 17 23 9 23 -11z m780 -11 c0 -14 -12 -19 -23
-8 -9 9 4 35 14 28 5 -3 9 -12 9 -20z m-1460 6 c-20 -13 -33 -13 -25 0 3 6 14
10 23 10 15 0 15 -2 2 -10z m1210 -9 c0 -5 3 -16 6 -24 3 -9 -3 -16 -15 -20
-12 -3 -21 -1 -21 4 0 5 5 9 10 9 6 0 10 7 10 15 0 8 -6 12 -14 9 -15 -6 -29
-40 -27 -61 1 -7 -3 -13 -9 -13 -5 0 -10 9 -10 21 0 15 -5 19 -17 16 -10 -3
-36 -8 -58 -12 -39 -6 -40 -6 -17 10 14 10 34 15 49 12 19 -3 27 0 30 14 3 11
17 19 37 22 17 2 34 5 39 5 4 1 7 -2 7 -7z m-915 -11 c-13 -6 -15 -9 -5 -9 13
-1 13 -2 0 -11 -20 -13 -50 -13 -50 0 0 6 7 10 15 10 8 0 15 5 15 10 0 6 10
10 23 9 21 0 21 -1 2 -9z m768 3 c-7 -2 -19 -2 -25 0 -7 3 -2 5 12 5 14 0 19
-2 13 -5z m44 1 c-3 -3 -12 -4 -19 -1 -8 3 -5 6 6 6 11 1 17 -2 13 -5z m753
-4 c0 -5 -5 -10 -11 -10 -5 0 -7 5 -4 10 3 6 8 10 11 10 2 0 4 -4 4 -10z
m-829 -12 c10 -6 1 -8 -28 -6 -24 2 -43 0 -43 -4 0 -5 8 -8 18 -9 11 0 12 -2
4 -6 -7 -3 -19 1 -27 7 -9 7 -15 8 -15 2 0 -5 -9 -12 -21 -15 -16 -4 -18 -3
-8 9 9 11 8 14 -7 15 -25 2 43 15 82 16 17 1 37 -3 45 -9z m-1001 -20 c0 -8
-16 -14 -37 -16 -41 -3 -35 13 7 21 14 2 26 5 28 6 1 0 2 -5 2 -11z m100 2 c0
-7 6 -7 18 -1 10 5 27 8 38 6 10 -2 22 -4 26 -4 4 -1 4 -8 1 -18 -4 -10 -2
-14 4 -10 6 4 13 1 16 -5 3 -10 7 -10 17 -1 7 6 19 9 27 6 11 -4 11 -8 -3 -18
-15 -11 -14 -14 12 -40 l29 -27 -39 25 c-22 15 -43 24 -48 20 -5 -3 -27 -6
-47 -7 -34 -2 -38 0 -33 18 4 20 4 20 -10 2 -12 -15 -22 -17 -56 -11 -56 9
-61 21 -11 29 22 3 37 10 34 16 -3 5 -17 7 -31 4 -22 -4 -24 -3 -12 10 15 17
68 21 68 6z m327 -4 c4 -3 -24 -6 -61 -6 -37 0 -65 4 -62 8 5 9 114 7 123 -2z
m-507 -4 c0 -10 -60 -36 -67 -28 -4 3 1 6 10 6 10 0 17 4 17 9 0 5 8 12 18 14
9 3 18 5 20 6 1 0 2 -2 2 -7z m869 -6 c-7 -6 -82 -15 -76 -9 8 7 71 21 76 16
2 -1 2 -5 0 -7z m-219 -6 c-8 -5 -28 -9 -45 -9 -30 2 -30 2 5 9 51 11 57 11
40 0z m80 0 c8 -5 12 -12 8 -15 -10 -10 -49 5 -43 16 8 11 16 11 35 -1z m47 4
c-3 -3 -12 -4 -19 -1 -8 3 -5 6 6 6 11 1 17 -2 13 -5z m283 -14 c0 -5 -7 -10
-16 -10 -8 0 -12 5 -9 10 3 6 10 10 16 10 5 0 9 -4 9 -10z m-1168 -8 c-6 -5
-33 -9 -60 -9 l-47 -1 40 8 c58 11 83 11 67 2z m118 -2 c0 -5 -7 -6 -17 -3
-12 5 -14 3 -8 -7 5 -9 4 -11 -4 -6 -6 4 -9 12 -6 17 8 12 35 12 35 -1z m-920
-10 c-20 -13 -40 -13 -40 0 0 6 12 10 28 10 21 0 24 -2 12 -10z m1360 0 c0 -6
-13 -9 -29 -8 -16 1 -27 6 -25 10 7 12 54 10 54 -2z m647 4 c-3 -3 -12 -4 -19
-1 -8 3 -5 6 6 6 11 1 17 -2 13 -5z m-277 -20 c0 -2 -12 -4 -26 -4 -14 0 -23
4 -20 9 6 8 46 4 46 -5z m329 -3 c13 -10 32 -16 41 -14 10 3 21 0 24 -6 11
-17 -46 -10 -67 8 -17 14 -20 14 -32 -2 -6 -9 -21 -17 -31 -16 -11 0 -13 3 -6
6 6 2 12 11 12 18 0 12 13 22 30 24 3 0 16 -8 29 -18z m-1874 -1 c3 -5 2 -10
-4 -10 -5 0 -13 5 -16 10 -3 6 -2 10 4 10 5 0 13 -4 16 -10z m1590 0 c3 -5 2
-10 -4 -10 -5 0 -13 5 -16 10 -3 6 -2 10 4 10 5 0 13 -4 16 -10z m88 3 c-7 -2
-19 -2 -25 0 -7 3 -2 5 12 5 14 0 19 -2 13 -5z m47 -4 c0 -5 6 -7 13 -3 9 5 9
4 -1 -7 -10 -11 -15 -10 -29 4 -16 16 -16 17 0 17 9 0 17 -5 17 -11z m-1653
-5 c-3 -3 -12 -4 -19 -1 -8 3 -5 6 6 6 11 1 17 -2 13 -5z m450 -16 c-3 -8 -6
-5 -6 6 -1 11 2 17 5 13 3 -3 4 -12 1 -19z m53 -3 c0 -3 -8 -5 -18 -5 -10 0
-19 7 -19 14 0 11 5 13 19 5 10 -5 18 -12 18 -14z m1208 7 c2 -7 -5 -12 -17
-12 -14 0 -19 5 -14 15 6 17 25 15 31 -3z m-1453 -2 c3 -5 11 -10 16 -10 6 0
8 4 5 9 -3 5 30 9 74 9 146 1 59 -24 -115 -33 -38 -2 -56 -1 -40 1 52 8 62 14
45 24 -9 6 -10 10 -3 10 6 0 15 -4 18 -10z m2002 4 c-3 -3 -12 -4 -19 -1 -8 3
-5 6 6 6 11 1 17 -2 13 -5z m-1579 -39 c-2 -1 -20 0 -42 3 -23 3 -33 7 -26 12
11 7 77 -8 68 -15z m768 -12 c-3 -4 -16 -1 -28 5 -18 8 -19 11 -5 11 9 1 17 7
17 14 0 6 5 4 11 -6 6 -10 8 -21 5 -24z m271 21 c-3 -3 -12 -4 -19 -1 -8 3 -5
6 6 6 11 1 17 -2 13 -5z m-697 -14 c8 -5 11 -10 5 -10 -5 0 -17 5 -25 10 -8 5
-10 10 -5 10 6 0 17 -5 25 -10z m1380 0 c20 -6 21 -8 5 -8 -11 0 -29 3 -40 8
-25 11 1 11 35 0z m-1307 -7 c-7 -2 -19 -2 -25 0 -7 3 -2 5 12 5 14 0 19 -2
13 -5z m254 -9 c-3 -3 -12 -4 -19 -1 -8 3 -5 6 6 6 11 1 17 -2 13 -5z m-1118
-15 c20 -6 49 -17 64 -25 35 -17 47 -17 84 -3 34 14 67 20 111 20 18 0 30 5
27 10 -11 17 12 9 30 -11 18 -20 18 -20 -16 -14 -23 4 -30 3 -20 -4 9 -7 -6
-8 -46 -5 -44 3 -69 0 -92 -11 -17 -9 -31 -13 -31 -9 0 4 -5 2 -12 -5 -7 -7
-19 -12 -27 -12 -13 0 -13 2 -3 9 10 6 4 10 -19 15 -18 3 -42 15 -54 25 -11
11 -33 21 -50 24 -25 3 -26 4 -6 6 14 0 41 -4 60 -10z m611 7 c0 -9 -39 -13
-51 -5 -10 6 -4 9 19 9 17 0 32 -2 32 -4z m170 -6 c0 -5 -5 -10 -11 -10 -5 0
-7 5 -4 10 3 6 8 10 11 10 2 0 4 -4 4 -10z m154 4 c29 -11 17 -23 -15 -14 -16
5 -37 6 -46 3 -11 -4 -14 -2 -9 5 8 13 44 16 70 6z m-1137 -10 c-3 -3 -12 -4
-19 -1 -8 3 -5 6 6 6 11 1 17 -2 13 -5z m68 -14 c-6 -10 -45 -1 -45 10 0 4 11
5 25 2 14 -2 23 -8 20 -12z m1584 4 c10 -9 -86 -3 -99 6 -10 7 2 8 40 4 30 -4
57 -8 59 -10z m-1529 -4 c0 -5 -7 -10 -16 -10 -8 0 -12 5 -9 10 3 6 10 10 16
10 5 0 9 -4 9 -10z m75 -11 c5 -5 -6 -9 -28 -9 -35 0 -45 8 -30 23 8 8 43 -1
58 -14z m453 14 c-10 -2 -26 -2 -35 0 -10 3 -2 5 17 5 19 0 27 -2 18 -5z m369
1 c-3 -3 -12 -4 -19 -1 -8 3 -5 6 6 6 11 1 17 -2 13 -5z m670 0 c-3 -3 -12 -4
-19 -1 -8 3 -5 6 6 6 11 1 17 -2 13 -5z m-892 -35 c-22 -4 -56 -10 -77 -14
-27 -6 -42 -3 -60 10 -19 14 -20 16 -3 10 44 -16 55 -16 74 -3 12 9 35 12 63
9 l43 -5 -40 -7z m465 17 c0 -3 -4 -8 -10 -11 -5 -3 -10 -1 -10 4 0 6 5 11 10
11 6 0 10 -2 10 -4z m30 -6 c0 -5 -5 -10 -11 -10 -5 0 -7 5 -4 10 3 6 8 10 11
10 2 0 4 -4 4 -10z m-1480 -10 c13 -9 13 -10 0 -10 -8 0 -22 5 -30 10 -13 9
-13 10 0 10 8 0 22 -5 30 -10z"/>
<path d="M1800 2260 c0 -5 5 -10 10 -10 6 0 10 5 10 10 0 6 -4 10 -10 10 -5 0
-10 -4 -10 -10z"/>
<path d="M1245 1220 c-4 -6 11 -10 37 -9 33 0 38 2 23 9 -28 12 -53 12 -60 0z"/>
<path d="M1217 1103 c-10 -9 -9 -23 2 -23 5 0 11 7 15 15 5 15 -5 20 -17 8z"/>
<path d="M595 1009 c-4 -6 -17 -14 -29 -19 -16 -7 -10 -9 27 -8 26 1 47 6 47
11 0 4 -9 5 -20 2 -21 -7 -28 10 -7 18 9 4 9 6 0 6 -6 1 -15 -4 -18 -10z"/>
<path d="M910 980 c0 -13 40 -13 60 0 11 7 5 10 -22 10 -21 0 -38 -4 -38 -10z"/>
<path d="M475 915 c-16 -13 -41 -26 -55 -28 -15 -3 -9 -5 16 -6 30 -1 44 4 48
15 4 11 10 13 19 7 22 -18 56 -21 68 -7 10 12 9 13 -5 8 -21 -8 -66 3 -66 17
0 6 5 7 12 3 7 -4 8 -3 4 4 -9 15 -5 16 -41 -13z"/>
<path d="M745 920 c-3 -6 1 -7 9 -4 18 7 21 14 7 14 -6 0 -13 -4 -16 -10z"/>
<path d="M625 890 c3 -5 11 -10 16 -10 6 0 7 5 4 10 -3 6 -11 10 -16 10 -6 0
-7 -4 -4 -10z"/>
<path d="M840 880 c0 -10 6 -12 40 -12 45 0 63 2 57 8 -10 11 -97 14 -97 4z"/>
<path d="M415 860 c3 -5 8 -10 11 -10 2 0 4 5 4 10 0 6 -5 10 -11 10 -5 0 -7
-4 -4 -10z"/>
<path d="M1249 868 c-6 -12 -4 -46 2 -42 4 2 5 12 2 22 -6 15 -5 16 13 2 18
-14 18 -14 5 3 -13 16 -19 20 -22 15z"/>
<path d="M832 848 c2 -6 10 -14 16 -16 7 -2 10 2 6 12 -7 18 -28 22 -22 4z"/>
<path d="M1193 853 c4 -6 1 -13 -5 -16 -7 -2 0 -4 15 -4 15 0 27 0 25 1 -2 1
-12 8 -22 16 -11 8 -17 10 -13 3z"/>
<path d="M695 840 c-3 -5 -12 -7 -20 -3 -10 3 -15 -1 -14 -13 0 -11 3 -14 5
-8 3 7 14 10 24 7 14 -4 20 0 20 11 0 18 -6 21 -15 6z"/>
<path d="M731 841 c-8 -6 -9 -11 -3 -15 6 -3 14 -1 17 5 9 14 2 20 -14 10z"/>
<path d="M767 833 c3 -7 6 -13 8 -13 2 0 5 6 8 13 3 8 -1 14 -8 14 -7 0 -11
-6 -8 -14z"/>
<path d="M867 830 c-3 -10 1 -24 9 -31 10 -8 14 -8 14 0 0 6 -6 11 -12 11 -7
0 -5 5 5 11 20 12 23 29 3 29 -7 0 -16 -9 -19 -20z"/>
<path d="M914 843 c3 -3 29 -8 58 -9 29 -2 71 -6 93 -9 25 -3 34 -2 25 4 -17
10 -186 23 -176 14z"/>
<path d="M590 830 c0 -5 4 -10 9 -10 6 0 13 5 16 10 3 6 -1 10 -9 10 -9 0 -16
-4 -16 -10z"/>
<path d="M1280 830 c-13 -8 -12 -10 3 -10 9 0 17 5 17 10 0 12 -1 12 -20 0z"/>
<path d="M1316 823 c-6 -14 -5 -15 5 -6 7 7 10 15 7 18 -3 3 -9 -2 -12 -12z"/>
<path d="M1350 830 c0 -5 5 -10 11 -10 5 0 7 5 4 10 -3 6 -8 10 -11 10 -2 0
-4 -4 -4 -10z"/>
<path d="M690 793 c0 -8 5 -13 12 -11 18 6 21 25 3 25 -8 0 -15 -7 -15 -14z"/>
<path d="M640 770 c0 -5 5 -10 11 -10 5 0 7 5 4 10 -3 6 -8 10 -11 10 -2 0 -4
-4 -4 -10z"/>
<path d="M1048 763 c6 -2 18 -2 25 0 6 3 1 5 -13 5 -14 0 -19 -2 -12 -5z"/>
<path d="M1240 752 c0 -10 -6 -24 -12 -32 -11 -12 -10 -12 3 -2 9 6 19 9 23 5
4 -4 4 0 0 10 -3 10 -1 17 5 17 6 0 11 5 11 10 0 6 -7 10 -15 10 -8 0 -15 -8
-15 -18z"/>
<path d="M936 725 c-9 -24 3 -34 34 -24 21 6 17 11 -7 8 -4 0 -10 7 -13 17 -6
16 -7 16 -14 -1z"/>
<path d="M965 733 c16 -15 65 -33 65 -24 0 5 -8 11 -17 14 -10 2 -27 8 -38 12
-13 5 -16 5 -10 -2z"/>
<path d="M1040 732 c0 -5 7 -17 15 -28 14 -19 14 -19 15 2 0 12 -7 24 -15 28
-8 3 -15 2 -15 -2z"/>
<path d="M1276 731 c-4 -5 3 -7 14 -4 23 6 26 13 6 13 -8 0 -17 -4 -20 -9z"/>
<path d="M1300 670 c0 -5 7 -10 16 -10 8 0 12 5 9 10 -3 6 -10 10 -16 10 -5 0
-9 -4 -9 -10z"/>
<path d="M1403 664 c0 -16 6 -17 25 -5 11 6 9 9 -5 13 -12 3 -20 0 -20 -8z"/>
<path d="M1058 663 c6 -2 18 -2 25 0 6 3 1 5 -13 5 -14 0 -19 -2 -12 -5z"/>
<path d="M1255 634 c-11 -8 -19 -19 -18 -24 1 -4 -7 -6 -17 -3 -15 4 -19 1
-15 -10 7 -16 45 -12 45 6 0 6 7 19 17 29 20 22 15 23 -12 2z"/>
<path d="M1089 627 c-8 -7 -18 -20 -22 -29 -5 -15 -1 -18 26 -18 18 0 41 6 51
13 16 12 14 13 -18 9 -40 -5 -43 -1 -20 22 18 19 6 21 -17 3z"/>
<path d="M1398 633 c7 -3 16 -2 19 1 4 3 -2 6 -13 5 -11 0 -14 -3 -6 -6z"/>
<path d="M1230 354 c17 -3 28 -10 25 -15 -4 -5 -1 -9 5 -9 27 0 1 25 -28 28
l-32 2 30 -6z"/>
<path d="M2220 259 c0 -5 5 -7 10 -4 6 3 10 8 10 11 0 2 -4 4 -10 4 -5 0 -10
-5 -10 -11z"/>
<path d="M1178 183 c7 -3 16 -2 19 1 4 3 -2 6 -13 5 -11 0 -14 -3 -6 -6z"/>
<path d="M1175 2651 c-3 -5 -1 -12 5 -16 5 -3 10 1 10 9 0 18 -6 21 -15 7z"/>
<path d="M1620 2650 c0 -5 9 -10 20 -10 11 0 20 5 20 10 0 6 -9 10 -20 10 -11
0 -20 -4 -20 -10z"/>
<path d="M1146 2617 c-15 -11 -17 -21 -12 -53 10 -57 19 -69 38 -50 10 9 14
29 12 57 -3 51 -14 63 -38 46z"/>
<path d="M310 2588 c0 -10 42 -27 53 -21 16 9 6 21 -23 25 -16 3 -30 1 -30 -4z"/>
<path d="M1230 2591 c0 -6 5 -13 10 -16 6 -3 10 1 10 9 0 9 -4 16 -10 16 -5 0
-10 -4 -10 -9z"/>
<path d="M685 2579 c-10 -15 3 -25 16 -12 7 7 7 13 1 17 -6 3 -14 1 -17 -5z"/>
<path d="M987 2583 c-4 -3 -7 -11 -7 -17 0 -6 5 -5 12 2 6 6 9 14 7 17 -3 3
-9 2 -12 -2z"/>
<path d="M1200 2580 c0 -5 4 -10 8 -10 11 0 3 -58 -9 -66 -5 -3 -9 -9 -9 -15
0 -15 36 24 37 41 3 27 -7 60 -17 60 -6 0 -10 -4 -10 -10z"/>
<path d="M940 2570 c-12 -7 -10 -9 7 -7 12 0 19 5 17 9 -6 10 -6 10 -24 -2z"/>
<path d="M1320 2533 c0 -16 -2 -16 -11 -3 -8 12 -9 10 -7 -10 2 -20 9 -25 31
-26 15 -1 27 4 28 10 0 6 3 3 7 -6 6 -15 9 -13 19 8 10 22 10 24 -8 19 -25 -8
-46 4 -28 16 10 6 8 9 -8 9 -15 0 -23 -6 -23 -17z"/>
<path d="M1480 2540 c0 -5 5 -10 10 -10 6 0 10 5 10 10 0 6 -4 10 -10 10 -5 0
-10 -4 -10 -10z"/>
<path d="M1275 2490 c-3 -5 1 -10 9 -10 9 0 16 5 16 10 0 6 -4 10 -9 10 -6 0
-13 -4 -16 -10z"/>
<path d="M2135 2480 c-3 -5 -2 -10 4 -10 5 0 13 5 16 10 3 6 2 10 -4 10 -5 0
-13 -4 -16 -10z"/>
<path d="M1351 2454 c0 -11 3 -14 6 -6 3 7 2 16 -1 19 -3 4 -6 -2 -5 -13z"/>
<path d="M830 2450 c0 -5 5 -10 10 -10 6 0 10 5 10 10 0 6 -4 10 -10 10 -5 0
-10 -4 -10 -10z"/>
<path d="M163 2415 c0 -8 4 -12 9 -9 4 3 8 9 8 15 0 5 -4 9 -8 9 -5 0 -9 -7
-9 -15z"/>
<path d="M250 2360 c0 -5 10 -10 23 -10 18 0 19 2 7 10 -19 13 -30 13 -30 0z"/>
<path d="M1208 2353 c7 -3 16 -2 19 1 4 3 -2 6 -13 5 -11 0 -14 -3 -6 -6z"/>
<path d="M1280 2304 c0 -28 0 -27 35 -14 33 12 28 34 -8 37 -23 1 -27 -2 -27
-23z"/>
<path d="M750 2301 c0 -6 5 -13 10 -16 6 -3 10 1 10 9 0 9 -4 16 -10 16 -5 0
-10 -4 -10 -9z"/>
<path d="M315 2250 c-4 -6 -12 -7 -18 -4 -7 4 -9 3 -4 -1 4 -5 16 -10 27 -12
14 -2 18 2 14 12 -7 18 -11 19 -19 5z"/>
<path d="M618 2253 c7 -3 16 -2 19 1 4 3 -2 6 -13 5 -11 0 -14 -3 -6 -6z"/>
<path d="M96 2234 c-4 -10 -1 -14 6 -12 15 5 23 28 10 28 -5 0 -13 -7 -16 -16z"/>
<path d="M16 2218 c-9 -12 -16 -41 -16 -64 0 -34 3 -42 17 -40 10 0 21 5 24
10 4 5 15 6 24 2 13 -5 15 -9 6 -20 -9 -10 -7 -15 6 -18 25 -6 54 2 48 13 -10
15 5 10 26 -10 29 -27 70 -33 85 -13 11 15 8 18 -19 26 l-32 9 27 9 c33 11 42
33 22 52 -8 9 -14 19 -14 23 0 4 -10 9 -22 9 -12 1 -24 7 -26 13 -5 15 -45 14
-60 -1 -7 -7 -12 -20 -12 -30 0 -31 -29 -20 -44 17 -18 41 -20 42 -40 13z"/>
<path d="M60 2219 c0 -5 5 -7 10 -4 6 3 10 8 10 11 0 2 -4 4 -10 4 -5 0 -10
-5 -10 -11z"/>
<path d="M263 2198 c-1 -14 3 -18 13 -14 9 3 20 6 25 6 16 0 1 17 -19 22 -12
4 -18 -1 -19 -14z"/>
<path d="M2700 2204 c0 -8 5 -12 10 -9 6 3 10 10 10 16 0 5 -4 9 -10 9 -5 0
-10 -7 -10 -16z"/>
<path d="M2986 2125 c4 -8 8 -15 10 -15 2 0 4 7 4 15 0 8 -4 15 -10 15 -5 0
-7 -7 -4 -15z"/>
<path d="M0 2051 c0 -6 15 -11 33 -12 17 0 44 -2 60 -3 15 -1 27 2 27 6 0 4
-20 8 -44 8 -24 0 -51 3 -60 6 -9 3 -16 1 -16 -5z"/>
<path d="M145 2040 c3 -5 24 -10 45 -10 21 0 42 5 45 10 4 6 -13 10 -45 10
-32 0 -49 -4 -45 -10z"/>
<path d="M89 1960 c-9 -25 -14 -28 -39 -24 -16 4 -31 1 -35 -6 -5 -9 -2 -10
13 -6 12 4 31 2 42 -4 18 -10 22 -7 35 24 18 42 18 46 4 46 -5 0 -15 -13 -20
-30z"/>
<path d="M235 1900 c3 -5 8 -10 11 -10 2 0 4 5 4 10 0 6 -5 10 -11 10 -5 0 -7
-4 -4 -10z"/>
<path d="M2930 1890 c0 -5 5 -10 11 -10 5 0 7 5 4 10 -3 6 -8 10 -11 10 -2 0
-4 -4 -4 -10z"/>
<path d="M268 1864 c-3 -5 0 -18 6 -30 11 -20 11 -20 34 8 13 15 19 28 14 28
-5 0 -13 -7 -16 -17 -6 -15 -8 -14 -20 2 -7 10 -15 14 -18 9z"/>
<path d="M667 1854 c-4 -4 -7 -14 -7 -23 0 -11 3 -12 11 -4 6 6 10 16 7 23 -2
6 -7 8 -11 4z"/>
<path d="M260 1781 c0 -5 9 -11 21 -14 16 -4 18 -3 8 9 -13 16 -29 19 -29 5z"/>
<path d="M685 1760 c3 -5 8 -10 11 -10 2 0 4 5 4 10 0 6 -5 10 -11 10 -5 0 -7
-4 -4 -10z"/>
<path d="M2993 1590 c0 -25 2 -35 4 -22 2 12 2 32 0 45 -2 12 -4 2 -4 -23z"/>
<path d="M142 1590 c0 -14 2 -19 5 -12 2 6 2 18 0 25 -3 6 -5 1 -5 -13z"/>
<path d="M221 1558 c-1 -16 4 -28 9 -28 12 0 12 8 0 35 -8 18 -9 17 -9 -7z"/>
<path d="M1145 1569 c-3 -4 -12 -6 -20 -2 -9 3 -15 -1 -15 -11 0 -9 4 -16 10
-16 5 0 7 -6 4 -14 -4 -11 0 -13 17 -9 13 4 18 8 11 11 -14 4 3 25 28 34 10 3
8 6 -8 10 -12 4 -24 2 -27 -3z"/>
<path d="M2300 1557 c-20 -8 -22 -11 -8 -14 20 -5 55 12 42 19 -5 3 -20 1 -34
-5z"/>
<path d="M2760 1550 c0 -5 5 -10 10 -10 6 0 10 5 10 10 0 6 -4 10 -10 10 -5 0
-10 -4 -10 -10z"/>
<path d="M50 1520 c0 -5 5 -10 10 -10 6 0 10 5 10 10 0 6 -4 10 -10 10 -5 0
-10 -4 -10 -10z"/>
<path d="M2992 1510 c0 -14 2 -19 5 -12 2 6 2 18 0 25 -3 6 -5 1 -5 -13z"/>
<path d="M1176 1482 c-3 -5 1 -9 9 -9 8 0 15 4 15 9 0 4 -4 8 -9 8 -6 0 -12
-4 -15 -8z"/>
<path d="M122 1455 c-17 -18 -21 -30 -16 -50 8 -34 26 -27 37 14 13 52 6 64
-21 36z"/>
<path d="M44 1432 c4 -12 1 -26 -9 -36 -9 -9 -12 -16 -7 -16 25 0 46 60 23 68
-9 3 -11 -1 -7 -16z"/>
<path d="M70 1381 c0 -12 5 -21 10 -21 6 0 10 6 10 14 0 8 -4 18 -10 21 -5 3
-10 -3 -10 -14z"/>
<path d="M6 1304 c-4 -15 -6 -28 -4 -30 7 -7 88 9 88 18 0 5 -4 7 -9 4 -14 -9
-41 4 -41 20 0 25 -28 15 -34 -12z"/>
<path d="M225 1270 c-3 -5 -1 -10 4 -10 6 0 11 5 11 10 0 6 -2 10 -4 10 -3 0
-8 -4 -11 -10z"/>
<path d="M2420 1269 c0 -5 5 -7 10 -4 6 3 10 8 10 11 0 2 -4 4 -10 4 -5 0 -10
-5 -10 -11z"/>
<path d="M2283 1263 c-7 -2 -13 -12 -13 -20 0 -12 7 -14 27 -8 34 8 37 11 28
24 -6 11 -21 13 -42 4z"/>
<path d="M478 1253 c6 -2 18 -2 25 0 6 3 1 5 -13 5 -14 0 -19 -2 -12 -5z"/>
<path d="M166 1227 c3 -10 9 -15 12 -12 3 3 0 11 -7 18 -10 9 -11 8 -5 -6z"/>
<path d="M2510 1230 c0 -5 5 -10 10 -10 6 0 10 5 10 10 0 6 -4 10 -10 10 -5 0
-10 -4 -10 -10z"/>
<path d="M1448 1203 c7 -3 16 -2 19 1 4 3 -2 6 -13 5 -11 0 -14 -3 -6 -6z"/>
<path d="M1528 1193 c7 -3 16 -2 19 1 4 3 -2 6 -13 5 -11 0 -14 -3 -6 -6z"/>
<path d="M2330 1149 c-22 -6 -20 -7 13 -8 38 -1 47 3 25 11 -7 3 -24 1 -38 -3z"/>
<path d="M2418 1143 c17 -2 47 -2 65 0 17 2 3 4 -33 4 -36 0 -50 -2 -32 -4z"/>
<path d="M2580 1029 c0 -5 5 -7 10 -4 6 3 10 8 10 11 0 2 -4 4 -10 4 -5 0 -10
-5 -10 -11z"/>
<path d="M1769 1003 c-13 -15 -12 -15 9 -4 23 12 28 21 13 21 -5 0 -15 -7 -22
-17z"/>
<path d="M1816 985 c-3 -9 0 -15 9 -15 16 0 20 16 6 24 -5 3 -11 -1 -15 -9z"/>
<path d="M2159 973 c-13 -16 -12 -17 4 -4 16 13 21 21 13 21 -2 0 -10 -8 -17
-17z"/>
<path d="M1785 960 c-3 -5 -1 -10 4 -10 6 0 11 5 11 10 0 6 -2 10 -4 10 -3 0
-8 -4 -11 -10z"/>
<path d="M2224 955 c-10 -8 -14 -15 -8 -15 6 0 17 7 24 15 16 19 9 19 -16 0z"/>
<path d="M1706 913 c17 -13 34 -9 34 7 0 6 -12 9 -26 8 -23 -2 -23 -4 -8 -15z"/>
<path d="M2159 913 c-13 -17 -13 -17 6 -3 11 8 22 16 24 17 2 2 0 3 -6 3 -6 0
-17 -8 -24 -17z"/>
<path d="M2428 903 c7 -3 16 -2 19 1 4 3 -2 6 -13 5 -11 0 -14 -3 -6 -6z"/>
<path d="M1614 819 c-3 -6 -2 -15 3 -20 5 -5 9 -1 9 11 0 23 -2 24 -12 9z"/>
<path d="M2490 750 c0 -5 7 -7 15 -4 8 4 15 8 15 10 0 2 -7 4 -15 4 -8 0 -15
-4 -15 -10z"/>
<path d="M2585 670 c3 -5 8 -10 11 -10 2 0 4 5 4 10 0 6 -5 10 -11 10 -5 0 -7
-4 -4 -10z"/>
<path d="M2990 600 c0 -33 -4 -60 -10 -60 -15 0 -12 -29 5 -46 13 -14 15 -5
15 75 0 50 -2 91 -5 91 -3 0 -5 -27 -5 -60z"/>
<path d="M2649 601 c8 -5 10 -14 5 -22 -6 -11 -4 -11 10 0 13 11 14 16 4 22
-7 5 -17 9 -23 9 -5 0 -4 -4 4 -9z"/>
<path d="M2415 490 c-4 -6 5 -10 19 -10 14 0 26 -4 26 -10 0 -5 -5 -10 -11
-10 -8 0 -8 -5 1 -15 10 -12 10 -15 -4 -15 -9 0 -16 -4 -16 -9 0 -5 18 -9 40
-8 22 1 40 5 40 10 0 4 -4 7 -9 7 -5 0 -15 16 -22 35 -10 26 -19 35 -35 35
-13 0 -26 -4 -29 -10z"/>
<path d="M2719 481 c14 -4 27 -13 29 -21 3 -8 1 -12 -3 -8 -10 10 -47 -11 -40
-22 3 -5 21 0 40 13 31 20 33 23 18 35 -9 6 -28 12 -42 11 l-26 -1 24 -7z"/>
<path d="M2991 454 c0 -11 3 -14 6 -6 3 7 2 16 -1 19 -3 4 -6 -2 -5 -13z"/>
<path d="M2280 440 c0 -7 -7 -10 -14 -7 -10 4 -13 1 -9 -9 3 -7 14 -14 24 -14
10 0 19 -4 19 -10 0 -5 7 -7 15 -4 8 4 15 1 15 -5 0 -6 -8 -12 -17 -12 -10 -1
-4 -4 12 -8 22 -5 32 -3 36 8 4 11 7 12 13 2 10 -15 36 4 36 27 0 13 -2 13
-13 -3 -16 -21 -42 -11 -33 12 4 11 2 13 -9 9 -52 -21 -51 -21 -36 -3 8 10 9
17 3 17 -6 0 -17 3 -26 6 -9 4 -16 1 -16 -6z"/>
<path d="M2780 439 c0 -5 5 -7 10 -4 6 3 10 8 10 11 0 2 -4 4 -10 4 -5 0 -10
-5 -10 -11z"/>
<path d="M2920 441 c0 -6 4 -12 8 -15 5 -3 9 1 9 9 0 8 -4 15 -9 15 -4 0 -8
-4 -8 -9z"/>
<path d="M2028 413 c7 -3 16 -2 19 1 4 3 -2 6 -13 5 -11 0 -14 -3 -6 -6z"/>
<path d="M2046 392 c-4 -7 -5 -16 -2 -21 4 -5 0 -12 -6 -14 -8 -4 -7 -6 4 -6
22 -1 27 9 18 33 -4 14 -9 16 -14 8z"/>
<path d="M2230 389 c0 -5 5 -7 10 -4 6 3 10 8 10 11 0 2 -4 4 -10 4 -5 0 -10
-5 -10 -11z"/>
<path d="M2580 384 c0 -8 5 -12 10 -9 6 4 8 11 5 16 -9 14 -15 11 -15 -7z"/>
<path d="M2624 393 c12 -3 15 -7 7 -12 -8 -5 -7 -13 4 -27 15 -18 15 -18 13
11 -2 21 -9 30 -23 32 -18 2 -18 1 -1 -4z"/>
<path d="M2415 379 c-4 -6 -5 -12 -2 -15 2 -3 7 2 10 11 7 17 1 20 -8 4z"/>
<path d="M2469 388 c-7 -24 -5 -38 7 -38 8 0 14 9 14 20 0 11 -4 20 -10 20 -5
0 -10 -1 -11 -2z"/>
<path d="M2890 379 c0 -5 5 -7 10 -4 6 3 10 8 10 11 0 2 -4 4 -10 4 -5 0 -10
-5 -10 -11z"/>
<path d="M1976 371 c-3 -4 -4 -18 -1 -30 2 -11 0 -21 -6 -21 -5 0 -9 9 -9 20
0 17 -4 19 -27 14 -27 -6 -55 -24 -39 -24 5 0 2 -7 -5 -17 -13 -15 -12 -15 8
-5 12 7 25 17 28 22 4 6 11 7 17 4 6 -4 5 -10 -3 -16 -10 -6 -2 -8 22 -6 20 1
43 -2 50 -8 8 -5 21 -9 29 -8 8 1 21 2 28 3 6 0 12 6 12 12 0 6 -7 9 -15 5
-20 -7 -46 4 -38 17 4 6 -2 8 -16 4 -17 -4 -21 -2 -17 9 3 9 1 12 -4 9 -6 -3
-10 -2 -10 4 0 5 6 12 13 14 9 4 9 6 0 6 -6 1 -14 -3 -17 -8z"/>
<path d="M2058 343 c-10 -2 -18 -9 -18 -14 0 -12 17 -12 24 0 3 5 16 7 29 4
18 -4 19 -3 7 6 -8 6 -17 10 -20 10 -3 -1 -13 -3 -22 -6z"/>
<path d="M2475 330 c-3 -5 -1 -10 4 -10 6 0 11 5 11 10 0 6 -2 10 -4 10 -3 0
-8 -4 -11 -10z"/>
<path d="M2335 230 c10 -11 19 -20 21 -20 1 0 0 9 -3 20 -3 11 -12 20 -21 20
-13 0 -12 -3 3 -20z"/>
<path d="M2050 8 c0 -5 33 -7 73 -7 76 2 68 6 -21 11 -28 2 -52 0 -52 -4z"/>
</g>
</svg>
